<?xml version="1.0" encoding="utf-8"?>
<svg version="1.1" xmlns="http://www.w3.org/2000/svg" xmlns:xlink="http://www.w3.org/1999/xlink" height="88.00000000000006" width="60">
  <defs>
    <path id="path-1" opacity="1" fill-rule="evenodd" d="M0,32.22430021866507 L0,0 L60,0 L60,4.336448503577194 L32.129513933591134,4.336448503577194 L32.129513933591134,27.887849890667457 L60,27.887849890667457 L60,60.11215010933254 L32.2042322428184,60.11215010933254 L32.2042322428184,88.00000000000004 L0,88.00000000000004 L0,55.775699781334914 L27.870486066408812,55.775699781334914 L27.870486066408812,32.22430021866507 L0,32.22430021866507 M27.870486066408812,4.336448503577194 L4.333748465573447,4.336448503577194 L4.333748465573447,27.887849890667457 L27.870486066408812,27.887849890667457 L27.870486066408812,4.336448503577194 M32.2042322428184,32.22430021866507 L55.740972132817625,32.22430021866507 L55.740972132817625,55.775699781334914 L32.2042322428184,55.775699781334914 L32.2042322428184,32.22430021866507 M27.870486066408812,60.11215010933254 L4.333748465573447,60.11215010933254 L4.333748465573447,83.6635496720024 L27.870486066408812,83.6635496720024 L27.870486066408812,60.11215010933254 "/>
  </defs>
  <g opacity="1">
    <use xlink:href="#path-1" fill="rgb(236,179,69)" fill-opacity="1"/>
  </g>
</svg>